<svg width="250pt" height="103pt" version="1.0" viewBox="0 0 250 103" xmlns="http://www.w3.org/2000/svg">
<g transform="translate(0 103) scale(.1 -.1)">
<path d="m746 895c-4-16-9-35-11-42-3-7-24-3-67 15-60 26-72 27-273 29-206 3-209 3-175-15l35-17 3-245c1-135 0-255-3-267s-18-29-33-37c-25-14-13-15 143-16 229 0 307 21 387 106 65 69 92 196 63 294-26 90-26 94 20 101l40 6-35 2c-43 1-73 31-81 81l-5 35-8-30zm-172-29c14-9 36-35 48-59 21-39 23-55 23-202 0-148-2-164-24-208-28-58-71-87-126-87-71 0-68-12-66 291 1 201 5 275 14 282 19 12 103 2 131-17z"/>
<path d="m1555 670c-24-46-18-56 15-25 17 16 30 35 30 42 0 24-29 13-45-17z"/>
<path d="m949 598c-13-18-40-48-60-66-21-18-45-52-54-76-15-40-15-46-1-74 30-59 84-55 140 10 20 24 43 51 51 61 26 30 45 21 45-22 0-22 6-44 15-51s17-11 18-9c2 2 22 42 46 89 48 94 59 110 73 110 11 0 10-3-20-90-13-38-16-59-10-67 15-19 23-16 37 14 15 32 72 106 78 100 2-3-6-29-18-58-46-119 12-187 82-94 19 24 37 45 42 45 11 0 8-35-4-47-14-14 3-48 31-63s69 9 105 59c32 47 45 52 45 15 0-32 17-64 34-64 14 0 57 45 87 90 23 35 32 20 15-26-8-22-41-67-78-104-94-97-115-152-72-195 48-48 93 5 149 175 18 56 34 102 36 104 2 1 25 19 50 39 70 56 93 49 67-23-10-31-9-35 16-57 15-13 32-23 39-23 6 0 37 28 69 61 47 51 60 60 72 50s20-4 44 32c17 24 38 50 48 58 16 13 17 12 10-6-19-47-19-95-1-115 27-30 39-25 89 34 58 67 60 93 3 40-74-70-77-72-77-32 0 22 11 52 31 81 32 49 35 80 8 85-11 2-36-23-69-68-29-39-55-69-57-66-10 10 8 75 29 101 14 19 17 30 10 37-20 20-37 1-61-68-53-154-190-265-164-133 7 34 15 46 43 61 73 40 102 104 58 132-29 18-70-5-108-61-35-51-136-141-146-130-3 3 6 28 21 55 28 52 27 72-4 72-12 0-35-27-65-74-26-40-55-81-66-91-18-16-20-16-26-1-9 23 26 99 70 152 28 34 44 44 66 44 33 0 41 23 14 38-41 23-80-7-190-145-96-120-134-142-134-79 0 46 16 86 34 86 8 0 31 15 50 34 46 43 51 92 9 102-39 10-73-14-105-75-30-57-104-151-119-151s-10 42 10 86c28 60 35 102 21 119-17 21-42 5-81-51-17-25-33-43-36-41-2 3 4 28 14 56 16 47 16 52 1 67-15 16-19 15-46-15-16-18-42-59-57-91-39-81-63-83-30-3 16 37 14 63-4 63-5 0-15-16-21-35-8-24-18-35-31-35-21 0-24 16-9 55 11 29 0 60-29 82-27 21-49 15-72-19zm67-42c-10-89-21-102-61-72-18 13-19 17-6 53 16 45 38 73 59 73 12 0 14-10 8-54zm534-7c0-22-66-96-77-85-6 6 7 38 35 84 18 28 42 29 42 1zm460-4c0-26-39-75-60-75-14 0-13 5 6 43 32 62 54 75 54 32zm-1040-80 20-6-21-32c-42-61-90-85-103-52-5 15 12 74 34 115l12 22 19-20c10-11 28-23 39-27zm709-227c-12-29-24-60-27-68-10-29-53-80-63-75-17 11-9 72 13 101 32 43 81 94 90 94 4 0-2-24-13-52z"/>
</g>
</svg>
