<svg width="50px" height="50px" version="1.0" viewBox="0 0 500 500" xmlns="http://www.w3.org/2000/svg">
<g transform="translate(0 500) scale(.1 -.1)">
<path d="m2407 4816c-189-68-237-315-86-450 27-24 69-51 92-59l42-14 3-215 2-216-37-6c-21-3-65-8-98-11-235-24-509-139-698-292l-69-56-296 296 25 54c22 48 25 65 21 128-4 61-10 82-37 124-106 165-335 170-450 10-100-138-33-347 131-405 58-20 138-18 194 6l48 21 297-297-57-64c-119-138-223-324-278-499-23-71-42-170-62-309l-5-32-190 2-190 3-18 53c-59 174-276 237-422 121-162-128-115-399 80-464 134-44 289 26 337 152l17 43h193 192l7-77c25-301 125-563 297-780 32-40 58-76 58-81 0-4-54-61-119-126l-119-119-49 24c-65 33-179 33-238 2-164-86-202-297-77-426 128-133 336-108 430 51 24 41 27 57 27 132 0 63-5 94-19 119l-18 34 248 248 59-52c81-71 236-171 337-219 134-62 289-101 501-126l47-5-2-166-3-166-42-14c-109-37-190-160-180-274 20-231 294-333 457-169 138 137 87 371-95 439l-50 19-3 165-2 166 47 6c225 27 320 50 464 111 117 49 281 152 373 233l59 53 250-250-18-39c-11-21-21-66-23-101-4-55-1-71 28-128 100-204 375-204 483 0 31 58 31 174 0 232-53 100-153 159-257 152-38-2-78-12-105-27l-44-22-125 124-125 125 40 49c177 213 284 474 314 761l13 122h192 192l12-35c6-19 31-57 56-84 123-137 337-115 431 46 38 66 44 169 13 241-28 65-94 125-162 148-137 45-293-32-339-168l-18-53-195-3-196-2v33c0 64-32 223-65 323-61 183-178 388-288 502l-42 42 300 300 53-20c102-39 215-18 287 54 109 110 112 266 8 378-168 179-477 48-461-196 2-36 13-80 26-106l22-45-298-298-68 55c-139 112-307 199-477 248-90 25-144 35-314 56l-43 5v215c0 195 2 215 18 221 164 55 247 201 198 350-47 142-207 219-349 169zm173-95c122-65 132-233 17-309-32-22-51-27-98-26-190 3-244 250-74 338 41 21 113 20 155-3zm-1437-617c115-76 94-264-36-313-143-54-290 95-229 231 49 110 168 146 265 82zm2912 3c105-69 110-217 9-293-33-25-46-29-104-29s-71 4-104 29c-43 33-75 95-76 145 0 71 59 150 129 172 38 12 109 0 146-24zm-1286-366c413-90 762-369 929-742 177-396 157-841-55-1206-195-334-502-552-898-639-113-24-379-24-495 0-208 44-379 121-541 243-256 192-433 471-500 783-30 142-33 403-5 530 69 315 240 589 490 782 188 146 411 238 648 268 106 13 323 3 427-19zm-2251-1082c63-31 95-84 95-159 0-73-34-129-97-160-78-37-168-15-222 56-25 33-29 46-29 104s4 71 29 104c33 43 95 75 145 76 19 0 54-10 79-21zm4150-16c48-38 72-86 72-143s-25-105-73-144c-34-27-47-31-101-31-50 0-70 5-99 25-95 65-107 202-24 281 61 58 160 64 225 12zm-3552-1442c61-28 97-80 102-149 4-70-17-115-74-154-84-60-191-41-250 43-22 33-27 51-27 99 0 134 127 216 249 161zm2922-2c87-42 124-148 82-234-44-92-151-129-240-83-132 68-132 249 0 316 55 28 101 28 158 1zm-1436-616c43-29 78-94 78-144-1-50-33-112-76-145-33-25-46-29-104-29s-71 4-104 29c-52 39-80 105-72 165 18 133 168 201 278 124z"/>
<path d="m2291 3509c-244-52-449-170-605-347-290-331-353-789-161-1190 24-51 66-123 92-160 93-132 256-269 410-346 265-132 621-139 901-17 363 157 604 484 652 885 6 49 8 121 5 160-27 308-130 532-335 730-144 139-292 222-480 271-146 38-343 44-479 14zm-36-131c-25-22-61-63-81-89-44-60-115-204-143-291-22-65-24-68-64-79-137-37-323-143-401-230l-45-50 20 73c10 40 42 118 69 173 120 242 319 415 575 500 55 19 103 34 107 35 4 0-13-19-37-42zm632-17c69-27 170-89 248-151 152-121 283-330 329-525 7-29 6-28-46 21-29 28-75 66-101 84-60 40-193 102-270 126-52 16-58 21-67 55-35 131-126 295-213 386l-60 62 64-18c35-10 88-28 116-40zm-437-176v-195h-67c-38 0-111-7-163-14-52-8-97-13-99-10-7 7 49 134 93 209 59 104 169 204 224 205 9 0 12-46 12-195zm181 167c55-36 113-101 162-183 38-65 94-196 86-203-2-3-47 2-99 10-52 7-125 14-162 14h-68v195c0 222-2 219 81 167zm-181-657v-205h-206-205l6 73c3 39 13 121 22 180 18 126 10 119 148 136 50 6 101 13 115 15s46 4 73 5l47 1v-205zm374 179c44-7 83-17 87-21 10-10 35-171 44-280l7-83h-206-206v206 206l98-7c53-4 133-13 176-21zm-847-86c-4-18-12-93-19-165l-12-133h-193c-126 0-193 4-193 10 0 26 32 83 70 124 51 56 146 117 247 162 99 43 107 43 100 2zm1199-28c110-54 191-119 236-189 52-83 55-81-167-81h-195v58c-1 55-13 169-26 241-7 33-6 34 22 27 16-3 74-29 130-56zm-1218-492c7-73 16-150 19-170l5-38-41 15c-57 20-175 80-225 114-77 53-156 155-156 201 0 6 67 10 193 10h193l12-132zm492-73v-205h-66c-71 0-259 27-285 40-10 6-20 35-28 77-16 92-32 273-25 284 3 5 95 9 205 9h199v-205zm505 123c-11-143-34-272-51-284-20-16-207-44-288-44h-66v205 205h206 206l-7-82zm485 64c0-49-94-154-195-218-70-44-219-107-223-94-2 5 2 35 8 67s13 104 17 161l6 102h194c179 0 193-1 193-18zm-1768-275c53-39 186-104 267-130l69-22 39-105c47-131 117-248 191-322l56-58-64 19c-323 94-572 333-674 645-14 43-26 83-26 89s24-11 53-39c28-28 69-62 89-77zm1773 27c-101-300-344-540-640-634-38-12-77-24-85-26-8-3 8 17 36 45 86 84 161 214 212 366 11 33 27 63 34 67s60 26 118 48c127 50 228 111 295 180 27 28 51 46 53 41s-9-44-23-87zm-1219-223c49-6 119-13 157-16l67-7v-194-195l-22 6c-99 30-205 159-278 335-31 75-36 95-22 86 5-3 49-10 98-15zm621-81c-77-178-177-296-274-325l-23-6v195 194l68 6c123 11 246 27 251 32 18 18 8-27-22-96z"/>
</g>
</svg>
